<?xml version="1.0" encoding="UTF-8"?>
<svg version="1.1" xmlns="http://www.w3.org/2000/svg" width="1030" height="1030">
<path d="M0 0 C82.29686968 -1.3956507 165.19068943 13.17423612 239.62695312 49.06640625 C240.37477051 49.42444336 241.12258789 49.78248047 241.89306641 50.15136719 C245.83748666 52.04816792 249.7463397 54.00311562 253.62792969 56.02539062 C255.00185162 56.74087708 256.37900423 57.45018313 257.75878906 58.15429688 C269.33996693 64.09414083 280.24297173 70.92217535 291.06445312 78.12890625 C292.00650604 78.75424255 292.00650604 78.75424255 292.96759033 79.39221191 C308.50124644 89.73374792 323.2649144 101.1329838 337.04492188 113.73046875 C338.44338831 114.99564716 339.84798967 116.25473525 341.28344727 117.4777832 C347.16819049 122.50827725 352.64046281 127.92761619 358.09985352 133.40893555 C359.68655259 135.00099591 361.27853054 136.58763615 362.87109375 138.17382812 C368.33255346 143.63102623 373.65691247 149.15230054 378.62695312 155.06640625 C379.43579956 156.01519653 379.43579956 156.01519653 380.26098633 156.9831543 C394.47037209 173.72880747 406.91769857 191.50178464 418.62695312 210.06640625 C419.02833496 210.70046387 419.4297168 211.33452148 419.84326172 211.98779297 C464.61821539 283.20542531 485.54990166 365.26169057 500.75195312 511.75390625 C500.81861679 513.33596359 500.81861679 513.33596359 500.8866272 514.94998169 C501.31158255 525.14645727 501.69722542 535.32102688 501.58398438 545.52734375 C501.39733984 564.03376271 501.39733984 564.03376271 510.47460938 579.58203125 C510.96268066 580.13076904 511.45075195 580.67950684 511.95361328 581.24487305 C513.18380125 582.58400821 514.46210448 583.87933904 515.76513672 585.14770508 C523.97820293 594.30156719 522.52740801 604.70210502 522.12695312 616.25390625 C522.08676147 618.27531984 522.05027076 620.29681059 522.01757812 622.31835938 C521.93006153 627.23630287 521.79237573 632.15049182 521.62695312 637.06640625 C520.63695312 637.06640625 519.64695312 637.06640625 518.62695312 637.06640625 C516.90942383 635.07861328 516.90942383 635.07861328 515.05273438 632.32421875 C514.38564453 631.34066406 513.71855469 630.35710938 513.03125 629.34375 C511.99581055 627.78333984 511.99581055 627.78333984 510.93945312 626.19140625 C510.23755859 625.15886719 509.53566406 624.12632812 508.8125 623.0625 C503.62695312 615.35221164 503.62695312 615.35221164 503.62695312 613.06640625 C498.28884471 615.95067492 493.10376559 618.98979837 487.99658203 622.2644043 C466.79849122 635.79143333 444.3708655 647.43562263 421.12695312 657.01000977 C418.48070573 658.12820434 415.87290422 659.31372161 413.26367188 660.515625 C333.09104761 697.18966317 241.71702523 712.64247505 105.27972412 724.91925049 C102.60173545 725.06780514 99.92418835 725.22314106 97.24658203 725.37841797 C36.88292123 728.79123517 -24.4835219 728.97280506 -84.83013916 725.21813965 C-88.35815314 725.0076257 -91.88763673 724.83106947 -95.41738892 724.6525116 C-173.84047869 720.63544736 -254.32459018 710.7432576 -329.37304688 687.06640625 C-330.9778168 686.56413766 -332.58263633 686.06202757 -334.1875 685.56005859 C-339.17181056 683.99682029 -344.14921756 682.41265874 -349.12304688 680.81640625 C-349.88673584 680.57173615 -350.6504248 680.32706604 -351.43725586 680.07498169 C-361.59868181 676.80366185 -371.51600608 673.16894376 -381.37304688 669.06640625 C-382.5404541 668.58171875 -383.70786133 668.09703125 -384.91064453 667.59765625 C-398.61530938 661.86037386 -412.25438246 656.05891645 -425.37304688 649.06640625 C-426.19401855 648.63392578 -427.01499023 648.20144531 -427.86083984 647.75585938 C-444.7521263 638.8344699 -460.86255576 628.92212835 -476.65600586 618.18701172 C-479.49051553 616.26825428 -482.29466656 614.55686817 -485.37304688 613.06640625 C-487.31148956 616.12831051 -489.24863263 619.19103494 -491.18554688 622.25390625 C-491.73275391 623.11822266 -492.27996094 623.98253906 -492.84375 624.87304688 C-493.37548828 625.71416016 -493.90722656 626.55527344 -494.45507812 627.421875 C-494.9676416 628.23060059 -495.48020508 629.03932617 -496.00830078 629.87255859 C-497.09282605 631.61594751 -498.12359087 633.39275561 -499.13476562 635.1796875 C-499.54339844 635.80230469 -499.95203125 636.42492187 -500.37304688 637.06640625 C-501.03304688 637.06640625 -501.69304687 637.06640625 -502.37304688 637.06640625 C-502.6229934 631.19919986 -502.80294991 625.33518368 -502.92236328 619.46386719 C-502.97220514 617.47340844 -503.04011054 615.48330718 -503.12744141 613.49414062 C-503.74946125 598.94619413 -502.09842537 590.89124831 -492.37304688 580.06640625 C-481.3167425 567.72262404 -479.80402419 557.40946632 -479.8609314 541.01589966 C-479.87331996 537.23301824 -479.82122101 533.45579092 -479.7512207 529.67358398 C-479.67987387 525.81485958 -479.61137112 521.95646722 -479.5617218 518.09739685 C-479.41362013 506.74587155 -478.87015084 495.45105969 -478.06054688 484.12890625 C-477.99806763 483.24476044 -477.93558838 482.36061462 -477.87121582 481.44967651 C-472.92433009 412.82143978 -460.63120083 343.92896594 -434.37304688 280.06640625 C-434.05561523 279.2873291 -433.73818359 278.50825195 -433.41113281 277.70556641 C-431.51903603 273.10232526 -429.48306115 268.57379865 -427.37304688 264.06640625 C-426.95474609 263.16567383 -426.53644531 262.26494141 -426.10546875 261.33691406 C-408.32716804 223.19640107 -386.88131279 187.95388606 -359.37304688 156.06640625 C-358.41591797 154.95652344 -358.41591797 154.95652344 -357.43945312 153.82421875 C-355.76185201 151.89478375 -354.06851604 149.98014271 -352.37304688 148.06640625 C-351.78136719 147.38191406 -351.1896875 146.69742188 -350.58007812 145.9921875 C-345.37777528 140.065386 -339.87630165 134.46336278 -334.31054688 128.87890625 C-333.55475342 128.11852051 -332.79895996 127.35813477 -332.02026367 126.57470703 C-327.29917539 121.86645477 -322.43501278 117.40381755 -317.37304688 113.06640625 C-316.27830003 112.10530093 -315.18450179 111.14311371 -314.09179688 110.1796875 C-248.1213262 52.54949346 -164.44718892 19.53592789 0 0 Z " fill="#FCF8E9" transform="translate(505.373046875,163.93359375)"/>
<path d="M0 0 C82.29686968 -1.3956507 165.19068943 13.17423612 239.62695312 49.06640625 C240.37477051 49.42444336 241.12258789 49.78248047 241.89306641 50.15136719 C245.83748666 52.04816792 249.7463397 54.00311562 253.62792969 56.02539062 C255.00185162 56.74087708 256.37900423 57.45018313 257.75878906 58.15429688 C269.33996693 64.09414083 280.24297173 70.92217535 291.06445312 78.12890625 C292.00650604 78.75424255 292.00650604 78.75424255 292.96759033 79.39221191 C308.50124644 89.73374792 323.2649144 101.1329838 337.04492188 113.73046875 C338.44338831 114.99564716 339.84798967 116.25473525 341.28344727 117.4777832 C347.16819049 122.50827725 352.64046281 127.92761619 358.09985352 133.40893555 C359.68655259 135.00099591 361.27853054 136.58763615 362.87109375 138.17382812 C368.33255346 143.63102623 373.65691247 149.15230054 378.62695312 155.06640625 C379.43579956 156.01519653 379.43579956 156.01519653 380.26098633 156.9831543 C394.47037209 173.72880747 406.91769857 191.50178464 418.62695312 210.06640625 C419.02833496 210.70046387 419.4297168 211.33452148 419.84326172 211.98779297 C464.61821539 283.20542531 485.54990166 365.26169057 500.75195312 511.75390625 C500.81861679 513.33596359 500.81861679 513.33596359 500.8866272 514.94998169 C501.31158255 525.14645727 501.69722542 535.32102688 501.58398438 545.52734375 C501.39733984 564.03376271 501.39733984 564.03376271 510.47460938 579.58203125 C510.96268066 580.13076904 511.45075195 580.67950684 511.95361328 581.24487305 C513.18380125 582.58400821 514.46210448 583.87933904 515.76513672 585.14770508 C523.97820293 594.30156719 522.52740801 604.70210502 522.12695312 616.25390625 C522.08676147 618.27531984 522.05027076 620.29681059 522.01757812 622.31835938 C521.93006153 627.23630287 521.79237573 632.15049182 521.62695312 637.06640625 C520.63695312 637.06640625 519.64695312 637.06640625 518.62695312 637.06640625 C516.90942383 635.07861328 516.90942383 635.07861328 515.05273438 632.32421875 C514.38564453 631.34066406 513.71855469 630.35710938 513.03125 629.34375 C511.99581055 627.78333984 511.99581055 627.78333984 510.93945312 626.19140625 C510.23755859 625.15886719 509.53566406 624.12632812 508.8125 623.0625 C503.62695312 615.35221164 503.62695312 615.35221164 503.62695312 613.06640625 C498.28884471 615.95067492 493.10376559 618.98979837 487.99658203 622.2644043 C466.79831778 635.79154401 444.36604026 647.45090532 421.1159668 657.01293945 C418.52802439 658.10827751 415.98630298 659.28122279 413.43945312 660.46875 C406.57164187 663.61632008 399.51114957 666.23502718 392.43945312 668.87890625 C391.09231884 669.38572475 389.74531279 669.89288423 388.3984375 670.40039062 C385.14274002 671.62631734 381.88534866 672.84766591 378.62695312 674.06640625 C377.96695313 670.10640625 377.30695312 666.14640625 376.62695312 662.06640625 C375.96695313 662.06640625 375.30695312 662.06640625 374.62695312 662.06640625 C374.51738281 661.50953125 374.4078125 660.95265625 374.29492188 660.37890625 C374.05708984 659.23421875 374.05708984 659.23421875 373.81445312 658.06640625 C373.66363281 657.32390625 373.5128125 656.58140625 373.35742188 655.81640625 C371.4966979 648.81132776 368.45812348 642.09354697 365.75195312 635.37890625 C363.46300566 629.69113978 361.20954226 623.99789908 359.06445312 618.25390625 C354.63381721 606.71093373 348.99016726 595.69516761 343.50195312 584.62890625 C342.99913818 583.61014404 342.49632324 582.59138184 341.97827148 581.54174805 C339.74621272 577.07285724 337.503802 572.7924532 334.69726562 568.65625 C333.18849767 566.27465872 332.64241646 565.31872258 332.46679688 562.453125 C334.12512871 559.04153998 336.55405086 556.5465885 339.18945312 553.87890625 C340.29352715 552.72374942 341.39508118 551.56617893 342.49414062 550.40625 C343.03264648 549.83890137 343.57115234 549.27155273 344.12597656 548.68701172 C346.83759309 545.75927741 349.27712359 542.63257246 351.72460938 539.484375 C352.98989112 537.87614215 354.28982795 536.2945657 355.62304688 534.7421875 C364.12244644 524.8080269 371.80155337 513.67985774 378.19189453 502.27294922 C378.66546387 501.54479004 379.1390332 500.81663086 379.62695312 500.06640625 C380.28695312 500.06640625 380.94695313 500.06640625 381.62695312 500.06640625 C381.99820313 498.82890625 382.36945312 497.59140625 382.75195312 496.31640625 C384.39051089 491.37743592 386.62893724 486.86259674 389.02929688 482.25390625 C404.50397022 451.38023034 409.18748218 418.29256669 409.12695312 384.19140625 C409.1255835 383.09106049 409.12421387 381.99071472 409.12280273 380.85702515 C408.98588426 347.53013441 404.38641831 315.29335524 389.62695312 285.06640625 C389.23378906 284.25558594 388.840625 283.44476563 388.43554688 282.609375 C372.25368292 249.60233139 345.57535459 215.26915899 311.62695312 199.06640625 C311.62695312 198.40640625 311.62695312 197.74640625 311.62695312 197.06640625 C310.86382813 196.86015625 310.10070312 196.65390625 309.31445312 196.44140625 C305.04483973 194.84934702 301.26572152 192.7279613 297.29101562 190.515625 C294.14309563 188.80319345 290.95373984 187.39712093 287.62695312 186.06640625 C286.85738281 185.73769531 286.0878125 185.40898437 285.29492188 185.0703125 C280.38058683 183.00946232 275.69385425 181.47811395 270.43945312 180.55859375 C268.62695312 180.06640625 268.62695312 180.06640625 266.62695312 178.06640625 C264.06552257 177.43180789 264.06552257 177.43180789 261.06835938 177.03125 C259.96041016 176.86173828 258.85246094 176.69222656 257.7109375 176.51757812 C256.54884766 176.34806641 255.38675781 176.17855469 254.18945312 176.00390625 C251.89876566 175.66100423 249.60838476 175.31604612 247.31835938 174.96875 C246.29943604 174.81913818 245.2805127 174.66952637 244.23071289 174.51538086 C241.62695312 174.06640625 241.62695312 174.06640625 238.62695312 173.06640625 C236.39707826 172.95873091 234.16407134 172.91218509 231.93164062 172.8984375 C231.27114212 172.89433868 230.61064362 172.89023987 229.93013 172.88601685 C227.78735168 172.87644506 225.64474976 172.87649007 223.50195312 172.87890625 C222.77553619 172.87851349 222.04911926 172.87812073 221.3006897 172.87771606 C210.59130518 172.88468629 200.22465099 173.46698411 189.62695312 175.06640625 C185.96364394 175.44351161 182.29721365 175.76517536 178.62695312 176.06640625 C178.62695312 176.72640625 178.62695312 177.38640625 178.62695312 178.06640625 C177.74910156 178.17855469 177.74910156 178.17855469 176.85351562 178.29296875 C140.33303816 183.88619503 109.01314002 206.74854085 81.62695312 230.19140625 C66.00518024 243.24748399 47.05088105 253.56551712 26.62695312 256.06640625 C25.3353125 256.56333984 25.3353125 256.56333984 24.01757812 257.0703125 C19.70258504 258.337966 15.78797498 258.40775935 11.31445312 258.37890625 C10.44014648 258.37544189 9.56583984 258.37197754 8.66503906 258.3684082 C-2.03583626 258.19315862 -12.52216595 256.75594271 -22.50488281 252.77929688 C-25.4087808 251.67117062 -28.37441111 250.87853677 -31.37304688 250.06640625 C-31.37304688 249.40640625 -31.37304688 248.74640625 -31.37304688 248.06640625 C-32.07429688 247.96199219 -32.77554687 247.85757813 -33.49804688 247.75 C-45.88596632 244.80450285 -57.34175943 234.76697193 -66.49804688 226.31640625 C-71.03641848 222.18294512 -75.93539733 218.57747581 -80.87304688 214.94140625 C-81.66855957 214.35520508 -82.46407227 213.76900391 -83.28369141 213.16503906 C-90.42822591 207.94680644 -97.6123371 202.85058107 -105.43554688 198.69140625 C-106.37527344 198.18867188 -107.315 197.6859375 -108.28320312 197.16796875 C-108.97285156 196.80445313 -109.6625 196.4409375 -110.37304688 196.06640625 C-110.37304688 195.40640625 -110.37304688 194.74640625 -110.37304688 194.06640625 C-111.05367188 193.98390625 -111.73429687 193.90140625 -112.43554688 193.81640625 C-115.62324734 193.00252528 -117.89080197 191.71614084 -120.68945312 190.04296875 C-122.84530586 188.79247413 -125.03339004 187.92237826 -127.37304688 187.06640625 C-128.52546875 186.62425781 -129.67789062 186.18210937 -130.86523438 185.7265625 C-135.8820696 183.84929879 -140.95301974 182.1785685 -146.06054688 180.56640625 C-147.38795898 180.12361328 -147.38795898 180.12361328 -148.7421875 179.671875 C-165.13777742 174.53481646 -182.1795324 173.56182285 -199.24951172 173.67529297 C-202.13621655 173.6914801 -205.02153815 173.67527009 -207.90820312 173.65625 C-254.50873119 173.60565521 -295.8648357 195.88215166 -329.37304688 227.06640625 C-330.08976563 227.71738281 -330.80648437 228.36835938 -331.54492188 229.0390625 C-351.32855238 247.77574905 -367.62174295 274.38117127 -376.37304688 300.06640625 C-376.80230469 301.28972656 -377.2315625 302.51304687 -377.67382812 303.7734375 C-381.11741473 313.71905102 -383.98109071 323.62673501 -385.37304688 334.06640625 C-385.70304687 334.39640625 -386.03304687 334.72640625 -386.37304688 335.06640625 C-386.72961524 337.83805107 -387.03815516 340.59870986 -387.31054688 343.37890625 C-387.80880137 348.44377154 -388.43390047 353.38933846 -389.42773438 358.3828125 C-390.8217079 366.52655254 -390.6355213 374.70332173 -390.57885742 382.93945312 C-390.56053759 385.69280245 -390.55834887 388.44581458 -390.55859375 391.19921875 C-390.55367869 392.98047161 -390.54785043 394.76172223 -390.54101562 396.54296875 C-390.5399028 397.35053619 -390.53878998 398.15810364 -390.53764343 398.99014282 C-390.47503363 406.65818814 -389.99564355 414.29618113 -388.12304688 421.75390625 C-387.11303087 425.8809573 -386.17299242 430.00014499 -385.34570312 434.16796875 C-381.40942103 453.75203951 -375.9648899 472.74463463 -366.32128906 490.32861328 C-365.39939144 492.01812598 -364.5145032 493.72766902 -363.63085938 495.4375 C-353.87098081 514.17017015 -341.21395069 530.21964869 -327.37304688 546.06640625 C-326.68984375 546.85144531 -326.00664062 547.63648438 -325.30273438 548.4453125 C-324.44035156 549.43337891 -324.44035156 549.43337891 -323.56054688 550.44140625 C-323.03847656 551.04339844 -322.51640625 551.64539063 -321.97851562 552.265625 C-320.80138466 553.58595924 -319.59044763 554.87635847 -318.36132812 556.1484375 C-317.70519531 556.84324219 -317.0490625 557.53804687 -316.37304688 558.25390625 C-315.77492188 558.86621094 -315.17679688 559.47851562 -314.56054688 560.109375 C-313.37304688 562.06640625 -313.37304688 562.06640625 -313.54882812 564.57421875 C-314.33269186 566.94438494 -315.17677816 568.68944872 -316.56054688 570.75390625 C-317.22763672 571.77871094 -317.22763672 571.77871094 -317.90820312 572.82421875 C-318.39160156 573.56414063 -318.875 574.3040625 -319.37304688 575.06640625 C-322.83547035 580.60281271 -325.92366004 585.9961867 -328.37304688 592.06640625 C-330.6199142 597.14096375 -332.89746313 602.19263315 -335.43554688 607.12890625 C-339.00672127 614.18520264 -341.60338322 621.65011803 -344.25976562 629.0859375 C-345.43997669 632.24559028 -346.75026008 635.33353591 -348.06054688 638.44140625 C-353.1003314 650.61308744 -356.5738864 663.46725317 -360.37304688 676.06640625 C-367.86522197 674.90203791 -374.42684011 671.98590121 -381.37304688 669.06640625 C-382.42057129 668.62796387 -383.4680957 668.18952148 -384.54736328 667.73779297 C-398.3673801 661.93715836 -412.13763751 656.12114384 -425.37304688 649.06640625 C-426.19401855 648.63392578 -427.01499023 648.20144531 -427.86083984 647.75585938 C-444.7521263 638.8344699 -460.86255576 628.92212835 -476.65600586 618.18701172 C-479.49051553 616.26825428 -482.29466656 614.55686817 -485.37304688 613.06640625 C-487.31148956 616.12831051 -489.24863263 619.19103494 -491.18554688 622.25390625 C-491.73275391 623.11822266 -492.27996094 623.98253906 -492.84375 624.87304688 C-493.37548828 625.71416016 -493.90722656 626.55527344 -494.45507812 627.421875 C-494.9676416 628.23060059 -495.48020508 629.03932617 -496.00830078 629.87255859 C-497.09282605 631.61594751 -498.12359087 633.39275561 -499.13476562 635.1796875 C-499.54339844 635.80230469 -499.95203125 636.42492187 -500.37304688 637.06640625 C-501.03304688 637.06640625 -501.69304687 637.06640625 -502.37304688 637.06640625 C-502.6229934 631.19919986 -502.80294991 625.33518368 -502.92236328 619.46386719 C-502.97220514 617.47340844 -503.04011054 615.48330718 -503.12744141 613.49414062 C-503.74946125 598.94619413 -502.09842537 590.89124831 -492.37304688 580.06640625 C-481.3167425 567.72262404 -479.80402419 557.40946632 -479.8609314 541.01589966 C-479.87331996 537.23301824 -479.82122101 533.45579092 -479.7512207 529.67358398 C-479.67987387 525.81485958 -479.61137112 521.95646722 -479.5617218 518.09739685 C-479.41362013 506.74587155 -478.87015084 495.45105969 -478.06054688 484.12890625 C-477.99806763 483.24476044 -477.93558838 482.36061462 -477.87121582 481.44967651 C-472.92433009 412.82143978 -460.63120083 343.92896594 -434.37304688 280.06640625 C-434.05561523 279.2873291 -433.73818359 278.50825195 -433.41113281 277.70556641 C-431.51903603 273.10232526 -429.48306115 268.57379865 -427.37304688 264.06640625 C-426.95474609 263.16567383 -426.53644531 262.26494141 -426.10546875 261.33691406 C-408.32716804 223.19640107 -386.88131279 187.95388606 -359.37304688 156.06640625 C-358.41591797 154.95652344 -358.41591797 154.95652344 -357.43945312 153.82421875 C-355.76185201 151.89478375 -354.06851604 149.98014271 -352.37304688 148.06640625 C-351.78136719 147.38191406 -351.1896875 146.69742188 -350.58007812 145.9921875 C-345.37777528 140.065386 -339.87630165 134.46336278 -334.31054688 128.87890625 C-333.55475342 128.11852051 -332.79895996 127.35813477 -332.02026367 126.57470703 C-327.29917539 121.86645477 -322.43501278 117.40381755 -317.37304688 113.06640625 C-316.27830003 112.10530093 -315.18450179 111.14311371 -314.09179688 110.1796875 C-248.1213262 52.54949346 -164.44718892 19.53592789 0 0 Z " fill="#7EC4F3" transform="translate(505.373046875,163.93359375)"/>
<path d="M0 0 C82.29686968 -1.3956507 165.19068943 13.17423612 239.62695312 49.06640625 C240.37477051 49.42444336 241.12258789 49.78248047 241.89306641 50.15136719 C245.83748666 52.04816792 249.7463397 54.00311562 253.62792969 56.02539062 C255.00185162 56.74087708 256.37900423 57.45018313 257.75878906 58.15429688 C269.33996693 64.09414083 280.24297173 70.92217535 291.06445312 78.12890625 C292.00650604 78.75424255 292.00650604 78.75424255 292.96759033 79.39221191 C308.50124644 89.73374792 323.2649144 101.1329838 337.04492188 113.73046875 C338.44338831 114.99564716 339.84798967 116.25473525 341.28344727 117.4777832 C347.16819049 122.50827725 352.64046281 127.92761619 358.09985352 133.40893555 C359.68655259 135.00099591 361.27853054 136.58763615 362.87109375 138.17382812 C368.33255346 143.63102623 373.65691247 149.15230054 378.62695312 155.06640625 C379.43579956 156.01519653 379.43579956 156.01519653 380.26098633 156.9831543 C394.47037209 173.72880747 406.91769857 191.50178464 418.62695312 210.06640625 C419.02833496 210.70046387 419.4297168 211.33452148 419.84326172 211.98779297 C464.61821539 283.20542531 485.54990166 365.26169057 500.75195312 511.75390625 C500.81861679 513.33596359 500.81861679 513.33596359 500.8866272 514.94998169 C501.31158255 525.14645727 501.69722542 535.32102688 501.58398438 545.52734375 C501.39733984 564.03376271 501.39733984 564.03376271 510.47460938 579.58203125 C510.96268066 580.13076904 511.45075195 580.67950684 511.95361328 581.24487305 C513.18380125 582.58400821 514.46210448 583.87933904 515.76513672 585.14770508 C523.97820293 594.30156719 522.52740801 604.70210502 522.12695312 616.25390625 C522.08676147 618.27531984 522.05027076 620.29681059 522.01757812 622.31835938 C521.93006153 627.23630287 521.79237573 632.15049182 521.62695312 637.06640625 C520.63695312 637.06640625 519.64695312 637.06640625 518.62695312 637.06640625 C516.9128418 635.0378418 516.9128418 635.0378418 515.04492188 632.203125 C514.35978516 631.16994141 513.67464844 630.13675781 512.96875 629.07226562 C512.25783203 627.97720703 511.54691406 626.88214844 510.81445312 625.75390625 C509.76547852 624.17512695 509.76547852 624.17512695 508.6953125 622.56445312 C504.82839024 616.6862972 501.24657585 610.75177628 497.99951172 604.50878906 C495.98360933 600.92161591 493.51540758 597.72814361 491.04492188 594.4453125 C487.14275249 589.12509106 483.69737357 583.4707815 480.19506836 577.88305664 C479.66212158 577.04637451 479.1291748 576.20969238 478.58007812 575.34765625 C478.10731445 574.59548828 477.63455078 573.84332031 477.14746094 573.06835938 C475.75002824 570.95956483 475.75002824 570.95956483 473.5640564 569.87812805 C471.62695312 568.06640625 471.62695312 568.06640625 471.12142944 564.96220398 C471.11857941 563.68005508 471.11572937 562.39790619 471.11279297 561.0769043 C471.10566788 560.36697327 471.09854279 559.65704224 471.09120178 558.92559814 C471.07180685 556.55949595 471.08024517 554.19428167 471.08789062 551.828125 C471.07795847 550.15223421 471.06600778 548.4763543 471.05215454 546.80049133 C471.01965535 542.35160811 471.00940159 537.90296962 471.00531006 533.45397949 C470.99557059 525.620257 470.95290852 517.7866645 470.90039062 509.953125 C470.89503611 509.09237366 470.88968159 508.23162231 470.88416481 507.3447876 C470.79319958 494.32050604 470.38943581 481.33404914 469.69335938 468.328125 C469.63172419 467.15942147 469.63172419 467.15942147 469.56884384 465.96710777 C468.88459705 453.25969009 467.6805371 440.6552238 466.00927734 428.03710938 C465.62146345 425.02375084 465.27700994 422.00808522 464.94335938 418.98828125 C463.4631942 405.85088957 461.12634158 393.06903652 458.28857422 380.16210938 C457.36384787 375.83534552 456.53331604 371.49193746 455.6965332 367.14746094 C454.03993897 358.58103238 452.34074706 350.1938015 449.57226562 341.91015625 C448.57935975 338.9232328 447.75822839 335.917964 446.93945312 332.87890625 C444.92748954 325.76889948 442.54036881 318.79920924 440.12695312 311.81640625 C439.74708252 310.71530518 439.36721191 309.6142041 438.97583008 308.47973633 C433.9409513 294.03858587 427.94043514 279.99188785 421.62695312 266.06640625 C421.1603125 265.01710938 420.69367187 263.9678125 420.21289062 262.88671875 C412.14821033 245.11384511 402.33804361 228.36282891 391.62695312 212.06640625 C391.10343262 211.2681543 390.57991211 210.46990234 390.04052734 209.64746094 C381.08159066 196.06868924 371.3186316 183.28164968 360.46679688 171.15625 C358.97530168 169.46208879 357.51661326 167.73908394 356.06835938 166.0078125 C346.15495866 154.16329548 335.47531116 142.99811813 323.62695312 133.06640625 C322.60486511 132.18243823 321.584166 131.29686309 320.56445312 130.41015625 C317.54507627 127.78853128 314.50405823 125.19374306 311.45068359 122.61181641 C310.30006842 121.63679712 309.15278076 120.65782462 308.01025391 119.67333984 C290.15913535 104.3477457 269.47425135 90.91405206 248.62695312 80.06640625 C246.70994121 79.05013014 244.79330581 78.03314365 242.87695312 77.015625 C230.86402936 70.66267466 230.86402936 70.66267466 218.54248047 64.94506836 C216.62695312 64.06640625 216.62695312 64.06640625 214.06835938 62.49609375 C210.72778761 60.53985492 207.22643959 59.41316909 203.56445312 58.19140625 C198.56661226 56.51452993 193.68866429 54.69427766 188.83789062 52.625 C182.76303134 50.06372357 176.6023885 47.97486143 170.31445312 46.00390625 C169.2199585 45.65811523 168.12546387 45.31232422 166.99780273 44.95605469 C154.52845319 41.04894879 141.97943465 37.82509458 129.20898438 35.0703125 C126.23792306 34.42786995 123.27978196 33.74954959 120.32617188 33.03125 C110.38885235 30.65048077 100.49099089 29.15404623 90.33349609 28.01733398 C89.34623535 27.90591064 88.35897461 27.7944873 87.34179688 27.6796875 C86.45613037 27.58469971 85.57046387 27.48971191 84.65795898 27.3918457 C82.62695312 27.06640625 82.62695312 27.06640625 81.62695312 26.06640625 C60.35523799 22.33818068 38.34316565 22.75908374 16.82515335 22.75499344 C14.70974679 22.75391658 12.59437305 22.74920463 10.47897339 22.74386597 C-3.57923499 22.71687316 -17.52615178 22.77478317 -31.48486328 24.60327148 C-35.61538858 25.09527239 -39.65428598 25.29676329 -43.81054688 25.44140625 C-64.24344095 26.37986047 -84.52764494 30.27869561 -104.37304688 35.06640625 C-104.99707397 35.21676331 -105.62110107 35.36712036 -106.26403809 35.52203369 C-111.1793201 36.70846561 -116.08984243 37.91354944 -120.99804688 39.12890625 C-121.66968872 39.29467163 -122.34133057 39.46043701 -123.0333252 39.63122559 C-134.58424769 42.49290549 -146.00550022 45.54422913 -157.01757812 50.1015625 C-159.33773274 51.05194092 -161.67302314 51.92868824 -164.02929688 52.78515625 C-206.7741203 68.42974399 -246.70795257 90.83348756 -282.37304688 119.06640625 C-283.30503906 119.80375 -284.23703125 120.54109375 -285.19726562 121.30078125 C-291.13467873 126.07781548 -296.78042393 131.10180921 -302.35351562 136.29296875 C-304.59623088 138.37611274 -306.89164452 140.38702138 -309.20898438 142.38671875 C-313.57925415 146.19717556 -317.71364073 150.21530627 -321.81054688 154.31640625 C-322.55626953 155.06220947 -323.30199219 155.8080127 -324.0703125 156.57641602 C-328.82683648 161.38227076 -333.23419114 166.272752 -337.40429688 171.59765625 C-339.45941144 174.17470468 -341.63638934 176.58341385 -343.87304688 179.00390625 C-348.77580951 184.40625955 -353.10866881 190.1547295 -357.37304688 196.06640625 C-358.05173828 197.00033203 -358.05173828 197.00033203 -358.74414062 197.953125 C-364.6985429 206.16665009 -370.41531517 214.51407571 -375.87304688 223.06640625 C-376.36522705 223.83090088 -376.85740723 224.59539551 -377.36450195 225.38305664 C-380.54132186 230.42594987 -383.10057139 235.55776941 -385.37304688 241.06640625 C-386.03304687 241.06640625 -386.69304687 241.06640625 -387.37304688 241.06640625 C-387.64117187 241.91203125 -387.90929687 242.75765625 -388.18554688 243.62890625 C-389.42090638 247.20494692 -390.85003487 250.60501533 -392.37304688 254.06640625 C-393.03304687 254.06640625 -393.69304687 254.06640625 -394.37304688 254.06640625 C-394.59992188 255.20078125 -394.82679688 256.33515625 -395.06054688 257.50390625 C-395.87359019 260.79644335 -397.01804897 263.4046867 -398.74804688 266.31640625 C-401.3983355 270.80091221 -402.85157543 275.38614334 -404.40039062 280.33984375 C-405.57743148 283.63933979 -407.37609823 286.20411319 -409.37304688 289.06640625 C-410.07437527 291.38955656 -410.73789861 293.72429704 -411.37304688 296.06640625 C-411.97208313 297.43246788 -412.59378045 298.78871803 -413.23242188 300.13671875 C-415.50922712 305.17667213 -417.09658967 310.32135225 -418.62304688 315.62890625 C-418.89117187 316.54220703 -419.15929687 317.45550781 -419.43554688 318.39648438 C-420.08694967 320.61823319 -420.73267266 322.84145875 -421.37304688 325.06640625 C-422.03304687 325.06640625 -422.69304687 325.06640625 -423.37304688 325.06640625 C-423.47617187 326.24203125 -423.57929688 327.41765625 -423.68554688 328.62890625 C-423.99224691 332.1252866 -425.14665766 334.84094809 -426.56860352 338.02954102 C-428.12860431 341.97949144 -428.98821913 346.12268022 -429.93554688 350.25390625 C-430.26196167 351.64947754 -430.26196167 351.64947754 -430.5949707 353.07324219 C-431.92957289 358.86813235 -433.0802822 364.6584395 -433.97460938 370.5390625 C-435.68313862 381.37649799 -435.68313862 381.37649799 -437.37304688 383.06640625 C-437.74626933 385.37280439 -438.07196492 387.68698652 -438.37304688 390.00390625 C-439.26438113 396.84907475 -439.26438113 396.84907475 -440.37304688 399.06640625 C-440.67793578 401.60815334 -440.942265 404.14365114 -441.18554688 406.69140625 C-441.81708822 412.88914901 -442.66118462 419.00122249 -443.76667786 425.13238525 C-447.87160915 448.22079551 -449.61759871 471.09419393 -449.56835938 494.51171875 C-449.56775827 495.4340694 -449.56715717 496.35642006 -449.56653786 497.30672073 C-449.56002968 505.87979008 -449.53356637 514.45239222 -449.43164062 523.02490234 C-449.37689692 527.78254147 -449.36660316 532.53860659 -449.38378525 537.29650497 C-449.38186671 539.07690763 -449.36382726 540.85738177 -449.32797623 542.63742447 C-449.0749499 555.52042653 -451.45687537 562.92826901 -459.37304688 573.06640625 C-460.36457633 574.532577 -461.34400633 576.0071171 -462.30322266 577.49462891 C-463.14045255 578.74068165 -463.97881681 579.98597302 -464.81835938 581.23046875 C-465.75989718 582.63402634 -466.7012995 584.03767483 -467.64257812 585.44140625 C-469.07349591 587.57233078 -470.50551586 589.70248959 -471.93994141 591.83105469 C-477.17054624 599.59787192 -482.25453618 607.36666035 -486.89794922 615.50195312 C-488.85981869 618.91265767 -490.9662786 622.21425067 -493.12304688 625.50390625 C-496.17002356 630.17723299 -496.17002356 630.17723299 -499.01367188 634.9765625 C-499.46226562 635.66621094 -499.91085937 636.35585938 -500.37304688 637.06640625 C-501.03304688 637.06640625 -501.69304687 637.06640625 -502.37304688 637.06640625 C-502.6229934 631.19919986 -502.80294991 625.33518368 -502.92236328 619.46386719 C-502.97220514 617.47340844 -503.04011054 615.48330718 -503.12744141 613.49414062 C-503.74946125 598.94619413 -502.09842537 590.89124831 -492.37304688 580.06640625 C-481.3167425 567.72262404 -479.80402419 557.40946632 -479.8609314 541.01589966 C-479.87331996 537.23301824 -479.82122101 533.45579092 -479.7512207 529.67358398 C-479.67987387 525.81485958 -479.61137112 521.95646722 -479.5617218 518.09739685 C-479.41362013 506.74587155 -478.87015084 495.45105969 -478.06054688 484.12890625 C-477.99806763 483.24476044 -477.93558838 482.36061462 -477.87121582 481.44967651 C-472.92433009 412.82143978 -460.63120083 343.92896594 -434.37304688 280.06640625 C-434.05561523 279.2873291 -433.73818359 278.50825195 -433.41113281 277.70556641 C-431.51903603 273.10232526 -429.48306115 268.57379865 -427.37304688 264.06640625 C-426.95474609 263.16567383 -426.53644531 262.26494141 -426.10546875 261.33691406 C-408.32716804 223.19640107 -386.88131279 187.95388606 -359.37304688 156.06640625 C-358.41591797 154.95652344 -358.41591797 154.95652344 -357.43945312 153.82421875 C-355.76185201 151.89478375 -354.06851604 149.98014271 -352.37304688 148.06640625 C-351.78136719 147.38191406 -351.1896875 146.69742188 -350.58007812 145.9921875 C-345.37777528 140.065386 -339.87630165 134.46336278 -334.31054688 128.87890625 C-333.55475342 128.11852051 -332.79895996 127.35813477 -332.02026367 126.57470703 C-327.29917539 121.86645477 -322.43501278 117.40381755 -317.37304688 113.06640625 C-316.27830003 112.10530093 -315.18450179 111.14311371 -314.09179688 110.1796875 C-248.1213262 52.54949346 -164.44718892 19.53592789 0 0 Z " fill="#05457B" transform="translate(505.373046875,163.93359375)"/>
<path d="M0 0 C0.66 0.33 1.32 0.66 2 1 C-0.43859635 4.65789453 -3.15018291 5.71258492 -7 7.5 C-21.78583448 14.65725958 -35.22195108 23.51015053 -48.16992188 33.58300781 C-49.88787844 34.91318656 -51.61949038 36.22213589 -53.359375 37.5234375 C-65.325572 46.5093946 -76.59199918 56.22270766 -86.92578125 67.05078125 C-89 69 -89 69 -91 69 C-91 69.66 -91 70.32 -91 71 C-92.875 73.125 -92.875 73.125 -95 75 C-95.66 75 -96.32 75 -97 75 C-97.20753906 75.52851563 -97.41507813 76.05703125 -97.62890625 76.6015625 C-99.56449194 79.98745884 -102.24534864 82.58954861 -104.9375 85.375 C-111.44747269 92.24139778 -117.26265082 99.48592334 -123 107 C-124.20742634 108.52155352 -125.41564206 110.0424813 -126.625 111.5625 C-134.64327759 121.77174387 -134.64327759 121.77174387 -141 133 C-141.66 133 -142.32 133 -143 133 C-143.2475 133.86625 -143.495 134.7325 -143.75 135.625 C-144.82785355 138.53520459 -146.02760135 140.60451121 -147.80078125 143.109375 C-149.38464108 145.60640484 -150.63939759 148.21872875 -151.9375 150.875 C-153.67556306 154.42992999 -155.44425721 157.82369092 -157.625 161.125 C-159.97221986 164.73610748 -161.51438234 168.4768727 -163.0078125 172.5078125 C-165.39272761 178.49826856 -168.46628069 183.04398202 -172.5625 187.9375 C-187.60503833 206.36797685 -199.57882181 226.88330389 -206.875 249.5625 C-207.72149988 252.1490274 -208.61543977 254.66359942 -209.625 257.1875 C-212.08035168 263.5769947 -213.73174758 270.40436441 -214.625 277.1875 C-215 280 -215 280 -216 281 C-216.35656836 283.77164482 -216.66510829 286.53230361 -216.9375 289.3125 C-217.4357545 294.37736529 -218.0608536 299.32293221 -219.0546875 304.31640625 C-220.44866102 312.46014629 -220.26247442 320.63691548 -220.20581055 328.87304688 C-220.18749071 331.6263962 -220.185302 334.37940833 -220.18554688 337.1328125 C-220.18063182 338.91406536 -220.17480355 340.69531598 -220.16796875 342.4765625 C-220.16685593 343.28412994 -220.1657431 344.09169739 -220.16459656 344.92373657 C-220.10198676 352.59178189 -219.62259667 360.22977488 -217.75 367.6875 C-216.73998399 371.81455105 -215.79994554 375.93373874 -214.97265625 380.1015625 C-211.03637415 399.68563326 -205.59184303 418.67822838 -195.94824219 436.26220703 C-195.02634456 437.95171973 -194.14145632 439.66126277 -193.2578125 441.37109375 C-183.49793393 460.1037639 -170.84090382 476.15324244 -157 492 C-156.31679687 492.78503906 -155.63359375 493.57007813 -154.9296875 494.37890625 C-154.35476562 495.03761719 -153.77984375 495.69632813 -153.1875 496.375 C-152.66542969 496.97699219 -152.14335937 497.57898438 -151.60546875 498.19921875 C-150.42833779 499.51955299 -149.21740076 500.80995222 -147.98828125 502.08203125 C-147.33214844 502.77683594 -146.67601562 503.47164062 -146 504.1875 C-145.401875 504.79980469 -144.80375 505.41210938 -144.1875 506.04296875 C-143 508 -143 508 -143.17578125 510.5078125 C-143.95964499 512.87797869 -144.80373129 514.62304247 -146.1875 516.6875 C-146.85458984 517.71230469 -146.85458984 517.71230469 -147.53515625 518.7578125 C-148.01855469 519.49773438 -148.50195312 520.23765625 -149 521 C-152.46242348 526.53640646 -155.55061316 531.92978045 -158 538 C-160.24686733 543.0745575 -162.52441626 548.1262269 -165.0625 553.0625 C-168.63367439 560.11879639 -171.23033635 567.58371178 -173.88671875 575.01953125 C-175.06692981 578.17918403 -176.3772132 581.26712966 -177.6875 584.375 C-182.72728453 596.54668119 -186.20083953 609.40084692 -190 622 C-197.49217509 620.83563166 -204.05379324 617.91949496 -211 615 C-212.04752441 614.56155762 -213.09504883 614.12311523 -214.17431641 613.67138672 C-227.99433322 607.87075211 -241.76459063 602.05473759 -255 595 C-255.82097168 594.56751953 -256.64194336 594.13503906 -257.48779297 593.68945312 C-276.05977535 583.88037857 -293.60264702 572.73853655 -311 561 C-311.99 560.34 -312.98 559.68 -314 559 C-313.46601886 554.18496313 -311.19738483 550.66817796 -308.625 546.6875 C-308.18091797 545.98890869 -307.73683594 545.29031738 -307.27929688 544.57055664 C-303.24827933 538.27808187 -299.02117358 532.1246385 -294.7578125 525.98828125 C-291.91838371 521.89711567 -289.13803429 517.7680476 -286.375 513.625 C-285.73594727 512.66968384 -285.73594727 512.66968384 -285.08398438 511.69506836 C-281.65639668 506.54592251 -280.85376142 503.60993749 -280.8581543 497.49731445 C-280.85467987 496.72086075 -280.85120544 495.94440704 -280.84762573 495.14442444 C-280.8402524 493.44753553 -280.83491547 491.75063688 -280.83133507 490.05373573 C-280.82411746 487.32498828 -280.80839289 484.59641536 -280.78999329 481.86772156 C-280.73790877 474.1036584 -280.69002241 466.33967177 -280.67407227 458.57543945 C-280.59679187 425.89497996 -278.96648471 393.677156 -272.80859375 361.515625 C-271.92571632 356.81344906 -271.50109828 352.1371169 -271.2109375 347.36328125 C-270.89080329 343.77659239 -269.92724398 340.47716492 -269 337 C-268.81250547 335.60681147 -268.64580506 334.21066643 -268.5 332.8125 C-268.05187309 329.39553231 -267.32758526 327.12373002 -266 324 C-264.67573683 319.36507892 -263.80405547 314.8337582 -263.125 310.0625 C-262.32847741 304.68754051 -261.28392304 299.41610313 -260.0625 294.125 C-259.90475098 293.42383057 -259.74700195 292.72266113 -259.58447266 292.00024414 C-258.49412504 287.39770859 -256.91135522 283.32379545 -255 279 C-254.55979277 277.53342724 -254.15298139 276.05537993 -253.8125 274.5625 C-253.544375 273.386875 -253.27625 272.21125 -253 271 C-252.34 271 -251.68 271 -251 271 C-250.79375 269.72125 -250.5875 268.4425 -250.375 267.125 C-249.31712223 261.79728223 -247.70874402 256.70930694 -246 251.5625 C-245.73880371 250.76924316 -245.47760742 249.97598633 -245.20849609 249.15869141 C-244.95406738 248.4063623 -244.69963867 247.6540332 -244.4375 246.87890625 C-244.20933594 246.2041626 -243.98117188 245.52941895 -243.74609375 244.83422852 C-243 243 -243 243 -241 240 C-240.21431972 237.80338602 -239.55058467 235.58537301 -238.87890625 233.3515625 C-238 231 -238 231 -236.51953125 228.5390625 C-234.98337836 225.97222605 -234.06140617 223.58407886 -233.125 220.75 C-231.52838026 216.18735205 -229.53954091 212.17976076 -227.10546875 208.015625 C-225.69579 205.44532734 -224.79421801 202.81586384 -224 200 C-223.34 200 -222.68 200 -222 200 C-221.80664062 199.39671875 -221.61328125 198.7934375 -221.4140625 198.171875 C-221.02347656 196.97304688 -221.02347656 196.97304688 -220.625 195.75 C-220.24214844 194.56664062 -220.24214844 194.56664062 -219.8515625 193.359375 C-219.04826333 191.13372042 -218.10288338 189.09068328 -217 187 C-216.34 187 -215.68 187 -215 187 C-214.90203125 186.30132812 -214.8040625 185.60265625 -214.703125 184.8828125 C-209.23908594 162.48025235 -186.30881845 138.78207598 -171.4140625 121.640625 C-169.96708412 119.96181031 -168.54460532 118.26449993 -167.125 116.5625 C-160.65041738 108.86200435 -153.79848121 101.61750804 -146.6875 94.5 C-145.4336853 93.24497681 -145.4336853 93.24497681 -144.15454102 91.96459961 C-139.25828913 87.11216424 -134.23303196 82.48485607 -129 78 C-127.95177098 77.0744479 -126.90482251 76.14744278 -125.859375 75.21875 C-90.14011799 43.82979419 -45.37048674 15.12349558 0 0 Z " fill="#60A6DD" transform="translate(335,218)"/>
<path d="M0 0 C3.27646209 2.89571685 6.33400159 5.98227932 9.37109375 9.125 C10.13035156 9.86492187 10.88960937 10.60484375 11.671875 11.3671875 C26.18292163 26.30088597 30.01614925 45.42605626 29.91674805 65.5324707 C29.65860225 74.85773235 28.06174635 82.55117195 24.37109375 91.125 C24.02175781 92.01445313 23.67242188 92.90390625 23.3125 93.8203125 C15.9360541 110.62672038 0.857855 124.5945604 -15.62890625 132.125 C-19.90749783 133.72715659 -24.19096102 135.0445099 -28.62890625 136.125 C-29.73878906 136.41310547 -29.73878906 136.41310547 -30.87109375 136.70703125 C-50.68947739 139.7106673 -69.18634818 135.45771695 -85.62890625 124.125 C-102.59239433 110.76299093 -113.90699808 92.64661083 -116.62890625 71.125 C-117.79273688 57.53682034 -117.09592599 42.35170919 -110.62890625 30.125 C-109.96890625 29.465 -109.30890625 28.805 -108.62890625 28.125 C-108.25765625 27.155625 -107.88640625 26.18625 -107.50390625 25.1875 C-101.25530835 10.15962206 -88.23477776 0.04982341 -74.62890625 -7.875 C-73.84644531 -8.33132813 -73.06398438 -8.78765625 -72.2578125 -9.2578125 C-50.78885868 -20.21550159 -18.13807882 -15.07269864 0 0 Z " fill="#020201" transform="translate(766.62890625,445.875)"/>
<path d="M0 0 C14.22626559 13.40343745 21.98441504 31.11890239 22.7578125 50.59375 C23.1333046 68.77187947 19.92688236 85.15406468 8.50390625 99.79296875 C8.0553125 100.45425781 7.60671875 101.11554688 7.14453125 101.796875 C-2.88483122 116.39844683 -18.30101415 125.94711915 -35.49609375 129.79296875 C-36.25535156 129.97601562 -37.01460938 130.1590625 -37.796875 130.34765625 C-56.33837793 133.40660174 -75.52500996 129.03299261 -91.00390625 118.6015625 C-102.51989939 110.24434491 -115.18006205 96.75969181 -118.21875 82.37109375 C-118.31027344 81.5203125 -118.40179688 80.66953125 -118.49609375 79.79296875 C-119.15609375 79.79296875 -119.81609375 79.79296875 -120.49609375 79.79296875 C-122.43614679 74.09598761 -122.81060574 69.03924739 -122.74609375 63.04296875 C-122.73932617 62.12918457 -122.73255859 61.21540039 -122.72558594 60.27392578 C-122.32959687 33.5630818 -115.47032492 14.43107653 -96.12890625 -4.52734375 C-67.17064393 -29.39049827 -27.11830621 -23.97784508 0 0 Z " fill="#020202" transform="translate(356.49609375,452.20703125)"/>
<path d="M0 0 C4.98100832 3.07338811 7.95300449 6.7928947 11.125 11.625 C18.64870253 22.50692168 31.15163057 30.36475315 44.12109375 32.9921875 C50.11279116 33.97228397 56.00211199 34.10882144 62.0625 34.0625 C63.08214844 34.07023438 64.10179687 34.07796875 65.15234375 34.0859375 C81.41111715 34.04419482 97.13502334 28.62829303 108.875 17.0625 C109.555625 16.32 110.23625 15.5775 110.9375 14.8125 C111.453125 14.35875 111.96875 13.905 112.5 13.4375 C114.18946201 11.65284149 114.18946201 11.65284149 115.75 8.4375 C118.34463925 3.72723183 121.75232156 0.54089281 126.9375 -1.1875 C128.33189664 -1.25415376 129.72919875 -1.27288199 131.125 -1.25 C133.0121875 -1.2190625 133.0121875 -1.2190625 134.9375 -1.1875 C134.9375 -0.5275 134.9375 0.1325 134.9375 0.8125 C136.05125 1.1528125 136.05125 1.1528125 137.1875 1.5 C141.02896563 3.33342678 143.05238412 6.04226824 144.9375 9.8125 C145.69397481 21.15962215 138.98019831 28.88327817 131.87109375 37.2421875 C122.46501092 47.25455559 110.50022977 52.83182178 97.9375 57.8125 C97.07125 58.17601562 96.205 58.53953125 95.3125 58.9140625 C92.32408455 60.04454861 89.34531222 60.63349477 86.21875 61.25 C83.89616477 61.74923888 83.89616477 61.74923888 81.69604492 62.82666016 C76.29366111 64.75734657 70.42824386 64.19478914 64.75 64.1875 C64.07687775 64.18728851 63.40375549 64.18707703 62.7102356 64.18685913 C51.63708041 64.1520747 41.50342333 63.15892432 30.9375 59.8125 C29.78894531 59.45027344 28.64039063 59.08804688 27.45703125 58.71484375 C10.65946915 52.79455603 -3.46188296 43.16502083 -14.0625 28.8125 C-14.68898438 27.97332031 -15.31546875 27.13414062 -15.9609375 26.26953125 C-19.5282406 21.00231611 -20.97074594 16.69710751 -20.58203125 10.296875 C-19.71831436 6.1666198 -18.25631211 4.58972792 -15.0625 1.8125 C-9.82012178 -1.53369886 -5.84043795 -2.26465961 0 0 Z " fill="#060605" transform="translate(452.0625,544.1875)"/>
<path d="M0 0 C5.72828279 2.64959897 9.22805624 6.45577961 11.7109375 12.27734375 C12.26385794 16.6935265 12.25968238 20.85706288 10.6484375 25.02734375 C7.2443049 28.98052999 3.71586539 32.60903445 -1.2890625 34.27734375 C-3.07786052 34.39641235 -4.8713481 34.45256488 -6.6640625 34.46484375 C-7.59992187 34.47902344 -8.53578125 34.49320312 -9.5 34.5078125 C-13.39514597 34.1859447 -16.1522944 33.32105782 -19.0546875 30.65625 C-19.54453125 30.05683594 -20.034375 29.45742188 -20.5390625 28.83984375 C-21.28929687 27.94458984 -21.28929687 27.94458984 -22.0546875 27.03125 C-24.93594305 22.93731411 -24.8574552 18.27087214 -24.83984375 13.43359375 C-23.89083291 7.99529049 -20.4671046 4.67772108 -16.2890625 1.27734375 C-11.34415102 -1.78379193 -5.46852703 -1.72641212 0 0 Z " fill="#F4F4F4" transform="translate(755.2890625,457.72265625)"/>
<path d="M0 0 C4.05718162 2.14791968 6.8651386 4.11676231 9.390625 8.015625 C10.078125 10.703125 10.078125 10.703125 10.390625 14.015625 C10.47828125 14.71042969 10.5659375 15.40523438 10.65625 16.12109375 C11.08080228 21.72711357 9.86587723 24.9996512 6.23046875 29.28515625 C2.25632498 33.02304519 -1.67902098 34.73484623 -7.046875 35.515625 C-13.28096223 34.64066539 -18.07507053 32.89514798 -22.109375 27.953125 C-25.24550825 21.81153073 -25.47643514 15.80486951 -24.609375 9.015625 C-23.0897643 6.0069998 -21.22289665 4.10769882 -18.609375 2.015625 C-17.8875 1.37625 -17.165625 0.736875 -16.421875 0.078125 C-11.03140794 -1.95827367 -5.41092761 -2.04124814 0 0 Z " fill="#F6F6F6" transform="translate(338.609375,457.984375)"/>
<path d="M0 0 C0.66 0.33 1.32 0.66 2 1 C-5.92 8.92 -13.84 16.84 -22 25 C-22.66 24.67 -23.32 24.34 -24 24 C-16.74443731 15.3577086 -8.8970485 6.97336234 0 0 Z " fill="#E1EEEC" transform="translate(189,378)"/>
<path d="M0 0 C0.99 0.33 1.98 0.66 3 1 C3 1.66 3 2.32 3 3 C-0.78864975 4.83961674 -4.58139775 6.67062072 -8.375 8.5 C-9.45523438 9.02464844 -10.53546875 9.54929687 -11.6484375 10.08984375 C-12.6796875 10.58613281 -13.7109375 11.08242188 -14.7734375 11.59375 C-16.20308838 12.28500977 -16.20308838 12.28500977 -17.66162109 12.99023438 C-20 14 -20 14 -22 14 C-22 13.34 -22 12.68 -22 12 C-16.07731549 8.39488769 -9.6358798 4.88186893 -2.76171875 3.57421875 C-2.18035156 3.38472656 -1.59898437 3.19523438 -1 3 C-0.67 2.01 -0.34 1.02 0 0 Z " fill="#6CC3DD" transform="translate(956,803)"/>
<path d="M0 0 C0.66 0.33 1.32 0.66 2 1 C-0.45023758 3.50804718 -2.91147598 6.0050076 -5.375 8.5 C-6.42300781 9.57314453 -6.42300781 9.57314453 -7.4921875 10.66796875 C-8.1625 11.34472656 -8.8328125 12.02148438 -9.5234375 12.71875 C-10.14138184 13.34716797 -10.75932617 13.97558594 -11.39599609 14.62304688 C-13 16 -13 16 -15 16 C-13.48625275 12.42723096 -11.38105612 10.14319629 -8.625 7.4375 C-7.85414063 6.67308594 -7.08328125 5.90867187 -6.2890625 5.12109375 C-4.27286711 3.25284444 -2.23393837 1.59639888 0 0 Z " fill="#2A2824" transform="translate(682,444)"/>
<path d="M0 0 C0 0.66 0 1.32 0 2 C-7.92 5.96 -7.92 5.96 -16 10 C-15 7 -15 7 -13 5.9375 C-12.34 5.628125 -11.68 5.31875 -11 5 C-10.67 4.34 -10.34 3.68 -10 3 C-8.22265625 2.1484375 -8.22265625 2.1484375 -6.0625 1.375 C-5.35222656 1.11460937 -4.64195312 0.85421875 -3.91015625 0.5859375 C-2 0 -2 0 0 0 Z " fill="#6DC3E4" transform="translate(981,792)"/>
<path d="M0 0 C-1.58667578 3.90285767 -4.13350481 6.33520982 -7.125 9.25 C-8.03507813 10.14203125 -8.94515625 11.0340625 -9.8828125 11.953125 C-10.58148438 12.62859375 -11.28015625 13.3040625 -12 14 C-12.66 13.67 -13.32 13.34 -14 13 C-12.04808712 10.82722848 -10.08902463 8.66177539 -8.125 6.5 C-7.56941406 5.87996094 -7.01382813 5.25992187 -6.44140625 4.62109375 C-5.90644531 4.03457031 -5.37148438 3.44804687 -4.8203125 2.84375 C-4.32805176 2.29912109 -3.83579102 1.75449219 -3.32861328 1.19335938 C-2 0 -2 0 0 0 Z " fill="#302E2A" transform="translate(263,447)"/>
<path d="M0 0 C-2.24988993 3.3748349 -3.18736653 3.93600927 -7 5 C-9.8125 4.625 -9.8125 4.625 -12 4 C-9.94577945 1.94577945 -8.66990976 1.31862408 -6 0.3125 C-5.29875 0.04050781 -4.5975 -0.23148438 -3.875 -0.51171875 C-2 -1 -2 -1 0 0 Z " fill="#5799C8" transform="translate(337,219)"/>
<path d="M0 0 C1.28418826 2.56837652 0.78288662 3.4519142 0.0625 6.1875 C-0.92153218 10.26892204 -1.17807024 13.81534925 -1 18 C-1.99 18 -2.98 18 -4 18 C-2.28571429 2.28571429 -2.28571429 2.28571429 0 0 Z " fill="#4385BD" transform="translate(78,503)"/>
<path d="M0 0 C2.64 0.66 5.28 1.32 8 2 C8.33 1.34 8.66 0.68 9 0 C9.66 0.33 10.32 0.66 11 1 C10.67 2.32 10.34 3.64 10 5 C6.0507432 4.44894091 2.65079826 3.61064629 -1 2 C-0.67 1.34 -0.34 0.68 0 0 Z " fill="#5AB4D8" transform="translate(135,835)"/>
<path d="M0 0 C0.66 0.33 1.32 0.66 2 1 C0.71451591 2.33929505 -0.57858155 3.67128643 -1.875 5 C-2.59429687 5.7425 -3.31359375 6.485 -4.0546875 7.25 C-6 9 -6 9 -8 9 C-6.4169423 4.7257442 -3.49431596 2.73468206 0 0 Z " fill="#C9C8C9" transform="translate(323,458)"/>
<path d="M0 0 C0 1.98 0 3.96 0 6 C-0.99 6 -1.98 6 -3 6 C-3.66 4.35 -4.32 2.7 -5 1 C-2 0 -2 0 0 0 Z " fill="#0E536F" transform="translate(1027,795)"/>
<path d="M0 0 C0.66 0.33 1.32 0.66 2 1 C-0.31 3.64 -2.62 6.28 -5 9 C-5.66 8.67 -6.32 8.34 -7 8 C-4.69 5.36 -2.38 2.72 0 0 Z " fill="#569ACC" transform="translate(160,344)"/>
<path d="M0 0 C-1.28519565 2.86697492 -2.57129254 4.97607712 -5 7 C-5.66 7 -6.32 7 -7 7 C-3.86206897 0 -3.86206897 0 0 0 Z " fill="#2C2925" transform="translate(576,545)"/>
</svg>
